<svg xmlns="http://www.w3.org/2000/svg" id="export" class="canvas" preserveAspectRatio="xMidYMid meet" style="" width="1220" height="63"><rect id="background" fill="#fff" pointer-events="all" width="1220" height="63"/><g id="origin" transform="translate(2.823749923706055, 2.823749923706055) scale(1)"><g id="clusters" class="clusters"/><g id="edge-paths" class="edge-paths"><defs><marker id="arrowhead" viewBox="0 0 10 10" refX="9" refY="5" markerUnits="strokeWidth" markerWidth="8" markerHeight="6" orient="auto" style="fill: rgb(0, 0, 0);"><path d="M 0 0 L 10 5 L 0 10 L 4 5 z" style="stroke-width: 1px;"/></marker><marker id="arrowhead-select" viewBox="0 0 10 10" refX="9" refY="5" markerUnits="strokeWidth" markerWidth="8" markerHeight="6" orient="auto" style="fill: rgb(238, 0, 0);"><path d="M 0 0 L 10 5 L 0 10 L 4 5 z" style="stroke-width: 1px;"/></marker><marker id="arrowhead-hover" viewBox="0 0 10 10" refX="9" refY="5" markerUnits="strokeWidth" markerWidth="8" markerHeight="6" orient="auto"><path d="M 0 0 L 10 5 L 0 10 L 4 5 z" style="stroke-width: 1px;"/></marker></defs><path id="edge-input.1" class="edge-path" d="M49.34299850463867,28.237500190734863L51.009665171305336,28.237500190734863C52.67633183797201,28.237500190734863,56.009665171305336,28.237500190734863,63.572998682657875,28.237500190734863C71.13633219401042,28.237500190734863,82.92966588338216,28.237500190734863,94.7229995727539,28.237500190734863C106.51633326212566,28.237500190734863,118.30966695149739,28.237500190734863,125.87300046284993,28.237500190734863C133.43633397420248,28.237500190734863,136.7696673075358,28.237500190734863,138.43633397420248,28.237500190734863L140.10300064086914,28.237500190734863" style="stroke: rgb(0, 0, 0); stroke-width: 1px; fill: none; marker-end: url(&quot;#arrowhead&quot;);"/><path class="edge-path-hit-test" d="M49.34299850463867,28.237500190734863L51.009665171305336,28.237500190734863C52.67633183797201,28.237500190734863,56.009665171305336,28.237500190734863,63.572998682657875,28.237500190734863C71.13633219401042,28.237500190734863,82.92966588338216,28.237500190734863,94.7229995727539,28.237500190734863C106.51633326212566,28.237500190734863,118.30966695149739,28.237500190734863,125.87300046284993,28.237500190734863C133.43633397420248,28.237500190734863,136.7696673075358,28.237500190734863,138.43633397420248,28.237500190734863L140.10300064086914,28.237500190734863" style="pointer-events: stroke; stroke-width: 0.5em; fill: none; stroke: rgb(0, 0, 0); stroke-opacity: 0.001;"/><path id="edge-/layer1/layer1.0/Conv_output_0" class="edge-path" d="M219.24300003051758,28.237500190734863L220.90966669718424,28.237500190734863C222.57633336385092,28.237500190734863,225.90966669718424,28.237500190734863,229.24300003051758,28.237500190734863C232.57633336385092,28.237500190734863,235.90966669718424,28.237500190734863,237.57633336385092,28.237500190734863L239.24300003051758,28.237500190734863" style="stroke: rgb(0, 0, 0); stroke-width: 1px; fill: none; marker-end: url(&quot;#arrowhead&quot;);"/><path class="edge-path-hit-test" d="M219.24300003051758,28.237500190734863L220.90966669718424,28.237500190734863C222.57633336385092,28.237500190734863,225.90966669718424,28.237500190734863,229.24300003051758,28.237500190734863C232.57633336385092,28.237500190734863,235.90966669718424,28.237500190734863,237.57633336385092,28.237500190734863L239.24300003051758,28.237500190734863" style="pointer-events: stroke; stroke-width: 0.5em; fill: none; stroke: rgb(0, 0, 0); stroke-opacity: 0.001;"/><path id="edge-/layer1/layer1.1/Relu_output_0" class="edge-path" d="M275.6280002593994,28.237500190734863L277.2946669260661,28.237500190734863C278.96133359273273,28.237500190734863,282.2946669260661,28.237500190734863,285.6280002593994,28.237500190734863C288.96133359273273,28.237500190734863,292.2946669260661,28.237500190734863,293.96133359273273,28.237500190734863L295.6280002593994,28.237500190734863" style="stroke: rgb(0, 0, 0); stroke-width: 1px; fill: none; marker-end: url(&quot;#arrowhead&quot;);"/><path class="edge-path-hit-test" d="M275.6280002593994,28.237500190734863L277.2946669260661,28.237500190734863C278.96133359273273,28.237500190734863,282.2946669260661,28.237500190734863,285.6280002593994,28.237500190734863C288.96133359273273,28.237500190734863,292.2946669260661,28.237500190734863,293.96133359273273,28.237500190734863L295.6280002593994,28.237500190734863" style="pointer-events: stroke; stroke-width: 0.5em; fill: none; stroke: rgb(0, 0, 0); stroke-opacity: 0.001;"/><path id="edge-/layer1/layer1.2/MaxPool_output_0" class="edge-path" d="M353.011999130249,28.237500190734863L354.6786657969157,28.237500190734863C356.34533246358234,28.237500190734863,359.6786657969157,28.237500190734863,363.011999130249,28.237500190734863C366.34533246358234,28.237500190734863,369.6786657969157,28.237500190734863,371.34533246358234,28.237500190734863L373.011999130249,28.237500190734863" style="stroke: rgb(0, 0, 0); stroke-width: 1px; fill: none; marker-end: url(&quot;#arrowhead&quot;);"/><path class="edge-path-hit-test" d="M353.011999130249,28.237500190734863L354.6786657969157,28.237500190734863C356.34533246358234,28.237500190734863,359.6786657969157,28.237500190734863,363.011999130249,28.237500190734863C366.34533246358234,28.237500190734863,369.6786657969157,28.237500190734863,371.34533246358234,28.237500190734863L373.011999130249,28.237500190734863" style="pointer-events: stroke; stroke-width: 0.5em; fill: none; stroke: rgb(0, 0, 0); stroke-opacity: 0.001;"/><path id="edge-/layer2/layer2.0/Conv_output_0" class="edge-path" d="M457.2280025482178,28.237500190734863L458.89466921488446,28.237500190734863C460.5613358815511,28.237500190734863,463.89466921488446,28.237500190734863,467.2280025482178,28.237500190734863C470.5613358815511,28.237500190734863,473.89466921488446,28.237500190734863,475.5613358815511,28.237500190734863L477.2280025482178,28.237500190734863" style="stroke: rgb(0, 0, 0); stroke-width: 1px; fill: none; marker-end: url(&quot;#arrowhead&quot;);"/><path class="edge-path-hit-test" d="M457.2280025482178,28.237500190734863L458.89466921488446,28.237500190734863C460.5613358815511,28.237500190734863,463.89466921488446,28.237500190734863,467.2280025482178,28.237500190734863C470.5613358815511,28.237500190734863,473.89466921488446,28.237500190734863,475.5613358815511,28.237500190734863L477.2280025482178,28.237500190734863" style="pointer-events: stroke; stroke-width: 0.5em; fill: none; stroke: rgb(0, 0, 0); stroke-opacity: 0.001;"/><path id="edge-/layer2/layer2.1/Relu_output_0" class="edge-path" d="M513.6130027770996,28.237500190734863L515.2796694437662,28.237500190734863C516.946336110433,28.237500190734863,520.2796694437662,28.237500190734863,523.6130027770996,28.237500190734863C526.946336110433,28.237500190734863,530.2796694437662,28.237500190734863,531.946336110433,28.237500190734863L533.6130027770996,28.237500190734863" style="stroke: rgb(0, 0, 0); stroke-width: 1px; fill: none; marker-end: url(&quot;#arrowhead&quot;);"/><path class="edge-path-hit-test" d="M513.6130027770996,28.237500190734863L515.2796694437662,28.237500190734863C516.946336110433,28.237500190734863,520.2796694437662,28.237500190734863,523.6130027770996,28.237500190734863C526.946336110433,28.237500190734863,530.2796694437662,28.237500190734863,531.946336110433,28.237500190734863L533.6130027770996,28.237500190734863" style="pointer-events: stroke; stroke-width: 0.5em; fill: none; stroke: rgb(0, 0, 0); stroke-opacity: 0.001;"/><path id="edge-/layer2/layer2.2/MaxPool_output_0" class="edge-path" d="M590.9970016479492,28.237500190734863L592.6636683146158,28.237500190734863C594.3303349812826,28.237500190734863,597.6636683146158,28.237500190734863,600.9970016479492,28.237500190734863C604.3303349812826,28.237500190734863,607.6636683146158,28.237500190734863,609.3303349812826,28.237500190734863L610.9970016479492,28.237500190734863" style="stroke: rgb(0, 0, 0); stroke-width: 1px; fill: none; marker-end: url(&quot;#arrowhead&quot;);"/><path class="edge-path-hit-test" d="M590.9970016479492,28.237500190734863L592.6636683146158,28.237500190734863C594.3303349812826,28.237500190734863,597.6636683146158,28.237500190734863,600.9970016479492,28.237500190734863C604.3303349812826,28.237500190734863,607.6636683146158,28.237500190734863,609.3303349812826,28.237500190734863L610.9970016479492,28.237500190734863" style="pointer-events: stroke; stroke-width: 0.5em; fill: none; stroke: rgb(0, 0, 0); stroke-opacity: 0.001;"/><path id="edge-/layer3/layer3.0/Conv_output_0" class="edge-path" d="M700.2890014648438,28.237500190734863L701.9556681315104,28.237500190734863C703.6223347981771,28.237500190734863,706.9556681315104,28.237500190734863,710.2890014648438,28.237500190734863C713.6223347981771,28.237500190734863,716.9556681315104,28.237500190734863,718.6223347981771,28.237500190734863L720.2890014648438,28.237500190734863" style="stroke: rgb(0, 0, 0); stroke-width: 1px; fill: none; marker-end: url(&quot;#arrowhead&quot;);"/><path class="edge-path-hit-test" d="M700.2890014648438,28.237500190734863L701.9556681315104,28.237500190734863C703.6223347981771,28.237500190734863,706.9556681315104,28.237500190734863,710.2890014648438,28.237500190734863C713.6223347981771,28.237500190734863,716.9556681315104,28.237500190734863,718.6223347981771,28.237500190734863L720.2890014648438,28.237500190734863" style="pointer-events: stroke; stroke-width: 0.5em; fill: none; stroke: rgb(0, 0, 0); stroke-opacity: 0.001;"/><path id="edge-/layer3/layer3.1/Relu_output_0" class="edge-path" d="M756.6740016937256,28.237500190734863L758.3406683603922,28.237500190734863C760.007335027059,28.237500190734863,763.3406683603922,28.237500190734863,766.6740016937256,28.237500190734863C770.007335027059,28.237500190734863,773.3406683603922,28.237500190734863,775.007335027059,28.237500190734863L776.6740016937256,28.237500190734863" style="stroke: rgb(0, 0, 0); stroke-width: 1px; fill: none; marker-end: url(&quot;#arrowhead&quot;);"/><path class="edge-path-hit-test" d="M756.6740016937256,28.237500190734863L758.3406683603922,28.237500190734863C760.007335027059,28.237500190734863,763.3406683603922,28.237500190734863,766.6740016937256,28.237500190734863C770.007335027059,28.237500190734863,773.3406683603922,28.237500190734863,775.007335027059,28.237500190734863L776.6740016937256,28.237500190734863" style="pointer-events: stroke; stroke-width: 0.5em; fill: none; stroke: rgb(0, 0, 0); stroke-opacity: 0.001;"/><path id="edge-/layer3/layer3.2/MaxPool_output_0" class="edge-path" d="M834.0580005645752,28.237500190734863L835.7246672312418,28.237500190734863C837.3913338979086,28.237500190734863,840.7246672312418,28.237500190734863,844.0580005645752,28.237500190734863C847.3913338979086,28.237500190734863,850.7246672312418,28.237500190734863,852.3913338979086,28.237500190734863L854.0580005645752,28.237500190734863" style="stroke: rgb(0, 0, 0); stroke-width: 1px; fill: none; marker-end: url(&quot;#arrowhead&quot;);"/><path class="edge-path-hit-test" d="M834.0580005645752,28.237500190734863L835.7246672312418,28.237500190734863C837.3913338979086,28.237500190734863,840.7246672312418,28.237500190734863,844.0580005645752,28.237500190734863C847.3913338979086,28.237500190734863,850.7246672312418,28.237500190734863,852.3913338979086,28.237500190734863L854.0580005645752,28.237500190734863" style="pointer-events: stroke; stroke-width: 0.5em; fill: none; stroke: rgb(0, 0, 0); stroke-opacity: 0.001;"/><path id="edge-/flatten/Flatten_output_0" class="edge-path" d="M903.9069995880127,28.237500190734863L905.5736662546793,28.237500190734863C907.2403329213461,28.237500190734863,910.5736662546793,28.237500190734863,913.9069995880127,28.237500190734863C917.2403329213461,28.237500190734863,920.5736662546793,28.237500190734863,922.2403329213461,28.237500190734863L923.9069995880127,28.237500190734863" style="stroke: rgb(0, 0, 0); stroke-width: 1px; fill: none; marker-end: url(&quot;#arrowhead&quot;);"/><path class="edge-path-hit-test" d="M903.9069995880127,28.237500190734863L905.5736662546793,28.237500190734863C907.2403329213461,28.237500190734863,910.5736662546793,28.237500190734863,913.9069995880127,28.237500190734863C917.2403329213461,28.237500190734863,920.5736662546793,28.237500190734863,922.2403329213461,28.237500190734863L923.9069995880127,28.237500190734863" style="pointer-events: stroke; stroke-width: 0.5em; fill: none; stroke: rgb(0, 0, 0); stroke-opacity: 0.001;"/><path id="edge-/fc1/Gemm_output_0" class="edge-path" d="M998.9069995880127,28.237500190734863L1000.5736662546793,28.237500190734863C1002.2403329213461,28.237500190734863,1005.5736662546793,28.237500190734863,1008.9069995880127,28.237500190734863C1012.2403329213461,28.237500190734863,1015.5736662546793,28.237500190734863,1017.2403329213461,28.237500190734863L1018.9069995880127,28.237500190734863" style="stroke: rgb(0, 0, 0); stroke-width: 1px; fill: none; marker-end: url(&quot;#arrowhead&quot;);"/><path class="edge-path-hit-test" d="M998.9069995880127,28.237500190734863L1000.5736662546793,28.237500190734863C1002.2403329213461,28.237500190734863,1005.5736662546793,28.237500190734863,1008.9069995880127,28.237500190734863C1012.2403329213461,28.237500190734863,1015.5736662546793,28.237500190734863,1017.2403329213461,28.237500190734863L1018.9069995880127,28.237500190734863" style="pointer-events: stroke; stroke-width: 0.5em; fill: none; stroke: rgb(0, 0, 0); stroke-opacity: 0.001;"/><path id="edge-/relu/Relu_output_0" class="edge-path" d="M1055.2919998168945,28.237500190734863L1056.9586664835613,28.237500190734863C1058.6253331502278,28.237500190734863,1061.9586664835613,28.237500190734863,1065.2919998168945,28.237500190734863C1068.6253331502278,28.237500190734863,1071.9586664835613,28.237500190734863,1073.6253331502278,28.237500190734863L1075.2919998168945,28.237500190734863" style="stroke: rgb(0, 0, 0); stroke-width: 1px; fill: none; marker-end: url(&quot;#arrowhead&quot;);"/><path class="edge-path-hit-test" d="M1055.2919998168945,28.237500190734863L1056.9586664835613,28.237500190734863C1058.6253331502278,28.237500190734863,1061.9586664835613,28.237500190734863,1065.2919998168945,28.237500190734863C1068.6253331502278,28.237500190734863,1071.9586664835613,28.237500190734863,1073.6253331502278,28.237500190734863L1075.2919998168945,28.237500190734863" style="pointer-events: stroke; stroke-width: 0.5em; fill: none; stroke: rgb(0, 0, 0); stroke-opacity: 0.001;"/><path id="edge-23" class="edge-path" d="M1150.2919998168945,28.237500190734863L1153.368666489919,28.237500190734863C1156.4453331629436,28.237500190734863,1162.5986665089924,28.237500190734863,1168.7519998550415,28.237500190734863C1174.9053332010906,28.237500190734863,1181.0586665471394,28.237500190734863,1184.135333220164,28.237500190734863L1187.2119998931885,28.237500190734863" style="stroke: rgb(0, 0, 0); stroke-width: 1px; fill: none; marker-end: url(&quot;#arrowhead&quot;);"/><path class="edge-path-hit-test" d="M1150.2919998168945,28.237500190734863L1153.368666489919,28.237500190734863C1156.4453331629436,28.237500190734863,1162.5986665089924,28.237500190734863,1168.7519998550415,28.237500190734863C1174.9053332010906,28.237500190734863,1181.0586665471394,28.237500190734863,1184.135333220164,28.237500190734863L1187.2119998931885,28.237500190734863" style="pointer-events: stroke; stroke-width: 0.5em; fill: none; stroke: rgb(0, 0, 0); stroke-opacity: 0.001;"/></g><g id="edge-labels" class="edge-labels"><text style="opacity: 1; font-family: -apple-system, BlinkMacSystemFont, &quot;Segoe WPC&quot;, &quot;Segoe UI&quot;, &quot;Ubuntu&quot;, &quot;Droid Sans&quot;, sans-serif, &quot;PingFang SC&quot;; font-size: 10px;" class="edge-label" id="edge-label-edge-input.1" transform="translate(69.34299850463867,38.23750019073486)"><tspan xml:space="preserve" dy="1em" x="1">1×3×32×32</tspan></text><text style="opacity: 1; font-family: -apple-system, BlinkMacSystemFont, &quot;Segoe WPC&quot;, &quot;Segoe UI&quot;, &quot;Ubuntu&quot;, &quot;Droid Sans&quot;, sans-serif, &quot;PingFang SC&quot;; font-size: 10px;" class="edge-label" id="edge-label-edge-23" transform="translate(1160.2919998168945,38.23750019073486)"><tspan xml:space="preserve" dy="1em" x="1">1×1</tspan></text></g><g id="nodes" class="nodes"><g id="input-name-input.1" class="node graph-input" style="" transform="translate(0,18.050000190734863)"><g class="node-item graph-item-input" transform="translate(0,0)"><path d="M5,0h39.34299850463867a5,5 0 0 1 5,5v10.375a5,5 0 0 1 -5,5h-39.34299850463867a5,5 0 0 1 -5,-5v-10.375a5,5 0 0 1 5,-5z" style="stroke: rgb(0, 0, 0); fill: rgb(238, 238, 238); stroke-width: 0px;"/><text x="6" y="14.28499984741211" style="font-family: -apple-system, BlinkMacSystemFont, &quot;Segoe WPC&quot;, &quot;Segoe UI&quot;, &quot;Ubuntu&quot;, &quot;Droid Sans&quot;, sans-serif, &quot;PingFang SC&quot;; font-size: 11px; text-rendering: geometricprecision; user-select: none;">input.1</text><title>float32[1,3,32,32]</title></g><path class="node node-border" d="M5,0h39.34299850463867a5,5 0 0 1 5,5v10.375a5,5 0 0 1 -5,5h-39.34299850463867a5,5 0 0 1 -5,-5v-10.375a5,5 0 0 1 5,-5z" style="stroke: rgb(51, 51, 51); fill: none; stroke-width: 1px;"/></g><g id="node-name-/layer1/layer1.0/Conv" class="node graph-node" style="" transform="translate(140.10300064086914,0)"><g class="node-item node-item-type node-item-type-layer" transform="translate(0,0)"><path d="M5,0h69.13999938964844a5,5 0 0 1 5,5v15.375a0,0 0 0 1 0,0h-79.13999938964844a0,0 0 0 1 0,0v-15.375a5,5 0 0 1 5,-5z" style="stroke: rgb(0, 0, 0); fill: rgb(51, 85, 136); stroke-width: 0px;"/><text x="6" y="14.28499984741211" style="font-family: -apple-system, BlinkMacSystemFont, &quot;Segoe WPC&quot;, &quot;Segoe UI&quot;, &quot;Ubuntu&quot;, &quot;Droid Sans&quot;, sans-serif, &quot;PingFang SC&quot;; font-size: 11px; text-rendering: geometricprecision; user-select: none; fill: rgb(255, 255, 255);">Conv</text><title>/layer1/layer1.0/Conv</title></g><g class="node-attribute-list" transform="translate(0,20.375)"><path d="M0,0h79.13999938964844a0,0 0 0 1 0,0v31.100000381469727a5,5 0 0 1 -5,5h-69.13999938964844a5,5 0 0 1 -5,-5v-31.100000381469727a0,0 0 0 1 0,0z" style="stroke: rgb(0, 0, 0); fill: rgb(255, 255, 255); stroke-width: 0px;"/><g class="node-attribute"><text xml:space="preserve" x="6" y="14.440000534057617" style="font-family: -apple-system, BlinkMacSystemFont, &quot;Segoe WPC&quot;, &quot;Segoe UI&quot;, &quot;Ubuntu&quot;, &quot;Droid Sans&quot;, sans-serif, &quot;PingFang SC&quot;; font-size: 9px; font-weight: normal; text-rendering: geometricprecision; user-select: none;"><title>float32[32,3,3,3]</title><tspan style="font-weight: bold;">W</tspan><tspan>〈32×3×3×3〉</tspan></text></g><g class="node-attribute"><text xml:space="preserve" x="6" y="29.49000072479248" style="font-family: -apple-system, BlinkMacSystemFont, &quot;Segoe WPC&quot;, &quot;Segoe UI&quot;, &quot;Ubuntu&quot;, &quot;Droid Sans&quot;, sans-serif, &quot;PingFang SC&quot;; font-size: 9px; font-weight: normal; text-rendering: geometricprecision; user-select: none;"><title>float32[32]</title><tspan style="font-weight: bold;">B</tspan><tspan>〈32〉</tspan></text></g><line class="node" x1="0" x2="79.13999938964844" y1="0" y2="0" style="stroke: rgb(51, 51, 51); fill: none; stroke-width: 1px;"/></g><path class="node node-border" d="M5,0h69.13999938964844a5,5 0 0 1 5,5v46.47500038146973a5,5 0 0 1 -5,5h-69.13999938964844a5,5 0 0 1 -5,-5v-46.47500038146973a5,5 0 0 1 5,-5z" style="stroke: rgb(51, 51, 51); fill: none; stroke-width: 1px;"/></g><g id="node-name-/layer1/layer1.1/Relu" class="node graph-node" style="" transform="translate(239.24300003051758,18.050000190734863)"><g class="node-item node-item-type node-item-type-activation" transform="translate(0,0)"><path d="M5,0h26.385000228881836a5,5 0 0 1 5,5v10.375a5,5 0 0 1 -5,5h-26.385000228881836a5,5 0 0 1 -5,-5v-10.375a5,5 0 0 1 5,-5z" style="stroke: rgb(0, 0, 0); fill: rgb(112, 41, 33); stroke-width: 0px;"/><text x="6" y="14.28499984741211" style="font-family: -apple-system, BlinkMacSystemFont, &quot;Segoe WPC&quot;, &quot;Segoe UI&quot;, &quot;Ubuntu&quot;, &quot;Droid Sans&quot;, sans-serif, &quot;PingFang SC&quot;; font-size: 11px; text-rendering: geometricprecision; user-select: none; fill: rgb(255, 255, 255);">Relu</text><title>/layer1/layer1.1/Relu</title></g><path class="node node-border" d="M5,0h26.385000228881836a5,5 0 0 1 5,5v10.375a5,5 0 0 1 -5,5h-26.385000228881836a5,5 0 0 1 -5,-5v-10.375a5,5 0 0 1 5,-5z" style="stroke: rgb(51, 51, 51); fill: none; stroke-width: 1px;"/></g><g id="node-name-/layer1/layer1.2/MaxPool" class="node graph-node" style="" transform="translate(295.6280002593994,18.050000190734863)"><g class="node-item node-item-type node-item-type-pool" transform="translate(0,0)"><path d="M5,0h47.38399887084961a5,5 0 0 1 5,5v10.375a5,5 0 0 1 -5,5h-47.38399887084961a5,5 0 0 1 -5,-5v-10.375a5,5 0 0 1 5,-5z" style="stroke: rgb(0, 0, 0); fill: rgb(51, 85, 51); stroke-width: 0px;"/><text x="6" y="14.28499984741211" style="font-family: -apple-system, BlinkMacSystemFont, &quot;Segoe WPC&quot;, &quot;Segoe UI&quot;, &quot;Ubuntu&quot;, &quot;Droid Sans&quot;, sans-serif, &quot;PingFang SC&quot;; font-size: 11px; text-rendering: geometricprecision; user-select: none; fill: rgb(255, 255, 255);">MaxPool</text><title>/layer1/layer1.2/MaxPool</title></g><path class="node node-border" d="M5,0h47.38399887084961a5,5 0 0 1 5,5v10.375a5,5 0 0 1 -5,5h-47.38399887084961a5,5 0 0 1 -5,-5v-10.375a5,5 0 0 1 5,-5z" style="stroke: rgb(51, 51, 51); fill: none; stroke-width: 1px;"/></g><g id="node-name-/layer2/layer2.0/Conv" class="node graph-node" style="" transform="translate(373.011999130249,0)"><g class="node-item node-item-type node-item-type-layer" transform="translate(0,0)"><path d="M5,0h74.21600341796875a5,5 0 0 1 5,5v15.375a0,0 0 0 1 0,0h-84.21600341796875a0,0 0 0 1 0,0v-15.375a5,5 0 0 1 5,-5z" style="stroke: rgb(0, 0, 0); fill: rgb(51, 85, 136); stroke-width: 0px;"/><text x="6" y="14.28499984741211" style="font-family: -apple-system, BlinkMacSystemFont, &quot;Segoe WPC&quot;, &quot;Segoe UI&quot;, &quot;Ubuntu&quot;, &quot;Droid Sans&quot;, sans-serif, &quot;PingFang SC&quot;; font-size: 11px; text-rendering: geometricprecision; user-select: none; fill: rgb(255, 255, 255);">Conv</text><title>/layer2/layer2.0/Conv</title></g><g class="node-attribute-list" transform="translate(0,20.375)"><path d="M0,0h84.21600341796875a0,0 0 0 1 0,0v31.100000381469727a5,5 0 0 1 -5,5h-74.21600341796875a5,5 0 0 1 -5,-5v-31.100000381469727a0,0 0 0 1 0,0z" style="stroke: rgb(0, 0, 0); fill: rgb(255, 255, 255); stroke-width: 0px;"/><g class="node-attribute"><text xml:space="preserve" x="6" y="14.440000534057617" style="font-family: -apple-system, BlinkMacSystemFont, &quot;Segoe WPC&quot;, &quot;Segoe UI&quot;, &quot;Ubuntu&quot;, &quot;Droid Sans&quot;, sans-serif, &quot;PingFang SC&quot;; font-size: 9px; font-weight: normal; text-rendering: geometricprecision; user-select: none;"><title>float32[64,32,3,3]</title><tspan style="font-weight: bold;">W</tspan><tspan>〈64×32×3×3〉</tspan></text></g><g class="node-attribute"><text xml:space="preserve" x="6" y="29.49000072479248" style="font-family: -apple-system, BlinkMacSystemFont, &quot;Segoe WPC&quot;, &quot;Segoe UI&quot;, &quot;Ubuntu&quot;, &quot;Droid Sans&quot;, sans-serif, &quot;PingFang SC&quot;; font-size: 9px; font-weight: normal; text-rendering: geometricprecision; user-select: none;"><title>float32[64]</title><tspan style="font-weight: bold;">B</tspan><tspan>〈64〉</tspan></text></g><line class="node" x1="0" x2="84.21600341796875" y1="0" y2="0" style="stroke: rgb(51, 51, 51); fill: none; stroke-width: 1px;"/></g><path class="node node-border" d="M5,0h74.21600341796875a5,5 0 0 1 5,5v46.47500038146973a5,5 0 0 1 -5,5h-74.21600341796875a5,5 0 0 1 -5,-5v-46.47500038146973a5,5 0 0 1 5,-5z" style="stroke: rgb(51, 51, 51); fill: none; stroke-width: 1px;"/></g><g id="node-name-/layer2/layer2.1/Relu" class="node graph-node" style="" transform="translate(477.2280025482178,18.050000190734863)"><g class="node-item node-item-type node-item-type-activation" transform="translate(0,0)"><path d="M5,0h26.385000228881836a5,5 0 0 1 5,5v10.375a5,5 0 0 1 -5,5h-26.385000228881836a5,5 0 0 1 -5,-5v-10.375a5,5 0 0 1 5,-5z" style="stroke: rgb(0, 0, 0); fill: rgb(112, 41, 33); stroke-width: 0px;"/><text x="6" y="14.28499984741211" style="font-family: -apple-system, BlinkMacSystemFont, &quot;Segoe WPC&quot;, &quot;Segoe UI&quot;, &quot;Ubuntu&quot;, &quot;Droid Sans&quot;, sans-serif, &quot;PingFang SC&quot;; font-size: 11px; text-rendering: geometricprecision; user-select: none; fill: rgb(255, 255, 255);">Relu</text><title>/layer2/layer2.1/Relu</title></g><path class="node node-border" d="M5,0h26.385000228881836a5,5 0 0 1 5,5v10.375a5,5 0 0 1 -5,5h-26.385000228881836a5,5 0 0 1 -5,-5v-10.375a5,5 0 0 1 5,-5z" style="stroke: rgb(51, 51, 51); fill: none; stroke-width: 1px;"/></g><g id="node-name-/layer2/layer2.2/MaxPool" class="node graph-node" style="" transform="translate(533.6130027770996,18.050000190734863)"><g class="node-item node-item-type node-item-type-pool" transform="translate(0,0)"><path d="M5,0h47.38399887084961a5,5 0 0 1 5,5v10.375a5,5 0 0 1 -5,5h-47.38399887084961a5,5 0 0 1 -5,-5v-10.375a5,5 0 0 1 5,-5z" style="stroke: rgb(0, 0, 0); fill: rgb(51, 85, 51); stroke-width: 0px;"/><text x="6" y="14.28499984741211" style="font-family: -apple-system, BlinkMacSystemFont, &quot;Segoe WPC&quot;, &quot;Segoe UI&quot;, &quot;Ubuntu&quot;, &quot;Droid Sans&quot;, sans-serif, &quot;PingFang SC&quot;; font-size: 11px; text-rendering: geometricprecision; user-select: none; fill: rgb(255, 255, 255);">MaxPool</text><title>/layer2/layer2.2/MaxPool</title></g><path class="node node-border" d="M5,0h47.38399887084961a5,5 0 0 1 5,5v10.375a5,5 0 0 1 -5,5h-47.38399887084961a5,5 0 0 1 -5,-5v-10.375a5,5 0 0 1 5,-5z" style="stroke: rgb(51, 51, 51); fill: none; stroke-width: 1px;"/></g><g id="node-name-/layer3/layer3.0/Conv" class="node graph-node" style="" transform="translate(610.9970016479492,0)"><g class="node-item node-item-type node-item-type-layer" transform="translate(0,0)"><path d="M5,0h79.29199981689453a5,5 0 0 1 5,5v15.375a0,0 0 0 1 0,0h-89.29199981689453a0,0 0 0 1 0,0v-15.375a5,5 0 0 1 5,-5z" style="stroke: rgb(0, 0, 0); fill: rgb(51, 85, 136); stroke-width: 0px;"/><text x="6" y="14.28499984741211" style="font-family: -apple-system, BlinkMacSystemFont, &quot;Segoe WPC&quot;, &quot;Segoe UI&quot;, &quot;Ubuntu&quot;, &quot;Droid Sans&quot;, sans-serif, &quot;PingFang SC&quot;; font-size: 11px; text-rendering: geometricprecision; user-select: none; fill: rgb(255, 255, 255);">Conv</text><title>/layer3/layer3.0/Conv</title></g><g class="node-attribute-list" transform="translate(0,20.375)"><path d="M0,0h89.29199981689453a0,0 0 0 1 0,0v31.100000381469727a5,5 0 0 1 -5,5h-79.29199981689453a5,5 0 0 1 -5,-5v-31.100000381469727a0,0 0 0 1 0,0z" style="stroke: rgb(0, 0, 0); fill: rgb(255, 255, 255); stroke-width: 0px;"/><g class="node-attribute"><text xml:space="preserve" x="6" y="14.440000534057617" style="font-family: -apple-system, BlinkMacSystemFont, &quot;Segoe WPC&quot;, &quot;Segoe UI&quot;, &quot;Ubuntu&quot;, &quot;Droid Sans&quot;, sans-serif, &quot;PingFang SC&quot;; font-size: 9px; font-weight: normal; text-rendering: geometricprecision; user-select: none;"><title>float32[128,64,3,3]</title><tspan style="font-weight: bold;">W</tspan><tspan>〈128×64×3×3〉</tspan></text></g><g class="node-attribute"><text xml:space="preserve" x="6" y="29.49000072479248" style="font-family: -apple-system, BlinkMacSystemFont, &quot;Segoe WPC&quot;, &quot;Segoe UI&quot;, &quot;Ubuntu&quot;, &quot;Droid Sans&quot;, sans-serif, &quot;PingFang SC&quot;; font-size: 9px; font-weight: normal; text-rendering: geometricprecision; user-select: none;"><title>float32[128]</title><tspan style="font-weight: bold;">B</tspan><tspan>〈128〉</tspan></text></g><line class="node" x1="0" x2="89.29199981689453" y1="0" y2="0" style="stroke: rgb(51, 51, 51); fill: none; stroke-width: 1px;"/></g><path class="node node-border" d="M5,0h79.29199981689453a5,5 0 0 1 5,5v46.47500038146973a5,5 0 0 1 -5,5h-79.29199981689453a5,5 0 0 1 -5,-5v-46.47500038146973a5,5 0 0 1 5,-5z" style="stroke: rgb(51, 51, 51); fill: none; stroke-width: 1px;"/></g><g id="node-name-/layer3/layer3.1/Relu" class="node graph-node" style="" transform="translate(720.2890014648438,18.050000190734863)"><g class="node-item node-item-type node-item-type-activation" transform="translate(0,0)"><path d="M5,0h26.385000228881836a5,5 0 0 1 5,5v10.375a5,5 0 0 1 -5,5h-26.385000228881836a5,5 0 0 1 -5,-5v-10.375a5,5 0 0 1 5,-5z" style="stroke: rgb(0, 0, 0); fill: rgb(112, 41, 33); stroke-width: 0px;"/><text x="6" y="14.28499984741211" style="font-family: -apple-system, BlinkMacSystemFont, &quot;Segoe WPC&quot;, &quot;Segoe UI&quot;, &quot;Ubuntu&quot;, &quot;Droid Sans&quot;, sans-serif, &quot;PingFang SC&quot;; font-size: 11px; text-rendering: geometricprecision; user-select: none; fill: rgb(255, 255, 255);">Relu</text><title>/layer3/layer3.1/Relu</title></g><path class="node node-border" d="M5,0h26.385000228881836a5,5 0 0 1 5,5v10.375a5,5 0 0 1 -5,5h-26.385000228881836a5,5 0 0 1 -5,-5v-10.375a5,5 0 0 1 5,-5z" style="stroke: rgb(51, 51, 51); fill: none; stroke-width: 1px;"/></g><g id="node-name-/layer3/layer3.2/MaxPool" class="node graph-node" style="" transform="translate(776.6740016937256,18.050000190734863)"><g class="node-item node-item-type node-item-type-pool" transform="translate(0,0)"><path d="M5,0h47.38399887084961a5,5 0 0 1 5,5v10.375a5,5 0 0 1 -5,5h-47.38399887084961a5,5 0 0 1 -5,-5v-10.375a5,5 0 0 1 5,-5z" style="stroke: rgb(0, 0, 0); fill: rgb(51, 85, 51); stroke-width: 0px;"/><text x="6" y="14.28499984741211" style="font-family: -apple-system, BlinkMacSystemFont, &quot;Segoe WPC&quot;, &quot;Segoe UI&quot;, &quot;Ubuntu&quot;, &quot;Droid Sans&quot;, sans-serif, &quot;PingFang SC&quot;; font-size: 11px; text-rendering: geometricprecision; user-select: none; fill: rgb(255, 255, 255);">MaxPool</text><title>/layer3/layer3.2/MaxPool</title></g><path class="node node-border" d="M5,0h47.38399887084961a5,5 0 0 1 5,5v10.375a5,5 0 0 1 -5,5h-47.38399887084961a5,5 0 0 1 -5,-5v-10.375a5,5 0 0 1 5,-5z" style="stroke: rgb(51, 51, 51); fill: none; stroke-width: 1px;"/></g><g id="node-name-/flatten/Flatten" class="node graph-node" style="" transform="translate(854.0580005645752,18.050000190734863)"><g class="node-item node-item-type node-item-type-shape" transform="translate(0,0)"><path d="M5,0h39.8489990234375a5,5 0 0 1 5,5v10.375a5,5 0 0 1 -5,5h-39.8489990234375a5,5 0 0 1 -5,-5v-10.375a5,5 0 0 1 5,-5z" style="stroke: rgb(0, 0, 0); fill: rgb(108, 79, 71); stroke-width: 0px;"/><text x="6" y="14.28499984741211" style="font-family: -apple-system, BlinkMacSystemFont, &quot;Segoe WPC&quot;, &quot;Segoe UI&quot;, &quot;Ubuntu&quot;, &quot;Droid Sans&quot;, sans-serif, &quot;PingFang SC&quot;; font-size: 11px; text-rendering: geometricprecision; user-select: none; fill: rgb(255, 255, 255);">Flatten</text><title>/flatten/Flatten</title></g><path class="node node-border" d="M5,0h39.8489990234375a5,5 0 0 1 5,5v10.375a5,5 0 0 1 -5,5h-39.8489990234375a5,5 0 0 1 -5,-5v-10.375a5,5 0 0 1 5,-5z" style="stroke: rgb(51, 51, 51); fill: none; stroke-width: 1px;"/></g><g id="node-name-/fc1/Gemm" class="node graph-node" style="" transform="translate(923.9069995880127,0)"><g class="node-item node-item-type node-item-type-layer" transform="translate(0,0)"><path d="M5,0h65a5,5 0 0 1 5,5v15.375a0,0 0 0 1 0,0h-75a0,0 0 0 1 0,0v-15.375a5,5 0 0 1 5,-5z" style="stroke: rgb(0, 0, 0); fill: rgb(51, 85, 136); stroke-width: 0px;"/><text x="6" y="14.28499984741211" style="font-family: -apple-system, BlinkMacSystemFont, &quot;Segoe WPC&quot;, &quot;Segoe UI&quot;, &quot;Ubuntu&quot;, &quot;Droid Sans&quot;, sans-serif, &quot;PingFang SC&quot;; font-size: 11px; text-rendering: geometricprecision; user-select: none; fill: rgb(255, 255, 255);">Gemm</text><title>/fc1/Gemm</title></g><g class="node-attribute-list" transform="translate(0,20.375)"><path d="M0,0h75a0,0 0 0 1 0,0v31.100000381469727a5,5 0 0 1 -5,5h-65a5,5 0 0 1 -5,-5v-31.100000381469727a0,0 0 0 1 0,0z" style="stroke: rgb(0, 0, 0); fill: rgb(255, 255, 255); stroke-width: 0px;"/><g class="node-attribute"><text xml:space="preserve" x="6" y="14.440000534057617" style="font-family: -apple-system, BlinkMacSystemFont, &quot;Segoe WPC&quot;, &quot;Segoe UI&quot;, &quot;Ubuntu&quot;, &quot;Droid Sans&quot;, sans-serif, &quot;PingFang SC&quot;; font-size: 9px; font-weight: normal; text-rendering: geometricprecision; user-select: none;"><title>float32[6,128]</title><tspan style="font-weight: bold;">B</tspan><tspan>〈6×128〉</tspan></text></g><g class="node-attribute"><text xml:space="preserve" x="6" y="29.49000072479248" style="font-family: -apple-system, BlinkMacSystemFont, &quot;Segoe WPC&quot;, &quot;Segoe UI&quot;, &quot;Ubuntu&quot;, &quot;Droid Sans&quot;, sans-serif, &quot;PingFang SC&quot;; font-size: 9px; font-weight: normal; text-rendering: geometricprecision; user-select: none;"><title>float32[6]</title><tspan style="font-weight: bold;">C</tspan><tspan>〈6〉</tspan></text></g><line class="node" x1="0" x2="75" y1="0" y2="0" style="stroke: rgb(51, 51, 51); fill: none; stroke-width: 1px;"/></g><path class="node node-border" d="M5,0h65a5,5 0 0 1 5,5v46.47500038146973a5,5 0 0 1 -5,5h-65a5,5 0 0 1 -5,-5v-46.47500038146973a5,5 0 0 1 5,-5z" style="stroke: rgb(51, 51, 51); fill: none; stroke-width: 1px;"/></g><g id="node-name-/relu/Relu" class="node graph-node" style="" transform="translate(1018.9069995880127,18.050000190734863)"><g class="node-item node-item-type node-item-type-activation" transform="translate(0,0)"><path d="M5,0h26.385000228881836a5,5 0 0 1 5,5v10.375a5,5 0 0 1 -5,5h-26.385000228881836a5,5 0 0 1 -5,-5v-10.375a5,5 0 0 1 5,-5z" style="stroke: rgb(0, 0, 0); fill: rgb(112, 41, 33); stroke-width: 0px;"/><text x="6" y="14.28499984741211" style="font-family: -apple-system, BlinkMacSystemFont, &quot;Segoe WPC&quot;, &quot;Segoe UI&quot;, &quot;Ubuntu&quot;, &quot;Droid Sans&quot;, sans-serif, &quot;PingFang SC&quot;; font-size: 11px; text-rendering: geometricprecision; user-select: none; fill: rgb(255, 255, 255);">Relu</text><title>/relu/Relu</title></g><path class="node node-border" d="M5,0h26.385000228881836a5,5 0 0 1 5,5v10.375a5,5 0 0 1 -5,5h-26.385000228881836a5,5 0 0 1 -5,-5v-10.375a5,5 0 0 1 5,-5z" style="stroke: rgb(51, 51, 51); fill: none; stroke-width: 1px;"/></g><g id="node-name-/fc2/Gemm" class="node graph-node" style="" transform="translate(1075.2919998168945,0)"><g class="node-item node-item-type node-item-type-layer" transform="translate(0,0)"><path d="M5,0h65a5,5 0 0 1 5,5v15.375a0,0 0 0 1 0,0h-75a0,0 0 0 1 0,0v-15.375a5,5 0 0 1 5,-5z" style="stroke: rgb(0, 0, 0); fill: rgb(51, 85, 136); stroke-width: 0px;"/><text x="6" y="14.28499984741211" style="font-family: -apple-system, BlinkMacSystemFont, &quot;Segoe WPC&quot;, &quot;Segoe UI&quot;, &quot;Ubuntu&quot;, &quot;Droid Sans&quot;, sans-serif, &quot;PingFang SC&quot;; font-size: 11px; text-rendering: geometricprecision; user-select: none; fill: rgb(255, 255, 255);">Gemm</text><title>/fc2/Gemm</title></g><g class="node-attribute-list" transform="translate(0,20.375)"><path d="M0,0h75a0,0 0 0 1 0,0v31.100000381469727a5,5 0 0 1 -5,5h-65a5,5 0 0 1 -5,-5v-31.100000381469727a0,0 0 0 1 0,0z" style="stroke: rgb(0, 0, 0); fill: rgb(255, 255, 255); stroke-width: 0px;"/><g class="node-attribute"><text xml:space="preserve" x="6" y="14.440000534057617" style="font-family: -apple-system, BlinkMacSystemFont, &quot;Segoe WPC&quot;, &quot;Segoe UI&quot;, &quot;Ubuntu&quot;, &quot;Droid Sans&quot;, sans-serif, &quot;PingFang SC&quot;; font-size: 9px; font-weight: normal; text-rendering: geometricprecision; user-select: none;"><title>float32[1,6]</title><tspan style="font-weight: bold;">B</tspan><tspan>〈1×6〉</tspan></text></g><g class="node-attribute"><text xml:space="preserve" x="6" y="29.49000072479248" style="font-family: -apple-system, BlinkMacSystemFont, &quot;Segoe WPC&quot;, &quot;Segoe UI&quot;, &quot;Ubuntu&quot;, &quot;Droid Sans&quot;, sans-serif, &quot;PingFang SC&quot;; font-size: 9px; font-weight: normal; text-rendering: geometricprecision; user-select: none;"><title>float32[1]</title><tspan style="font-weight: bold;">C</tspan><tspan>〈1〉</tspan></text></g><line class="node" x1="0" x2="75" y1="0" y2="0" style="stroke: rgb(51, 51, 51); fill: none; stroke-width: 1px;"/></g><path class="node node-border" d="M5,0h65a5,5 0 0 1 5,5v46.47500038146973a5,5 0 0 1 -5,5h-65a5,5 0 0 1 -5,-5v-46.47500038146973a5,5 0 0 1 5,-5z" style="stroke: rgb(51, 51, 51); fill: none; stroke-width: 1px;"/></g><g class="node" style="" transform="translate(1187.2119998931885,18.050000190734863)"><g class="node-item graph-item-output" transform="translate(0,0)"><path d="M5,0h16.407999992370605a5,5 0 0 1 5,5v10.375a5,5 0 0 1 -5,5h-16.407999992370605a5,5 0 0 1 -5,-5v-10.375a5,5 0 0 1 5,-5z" style="stroke: rgb(0, 0, 0); fill: rgb(238, 238, 238); stroke-width: 0px;"/><text x="6" y="14.28499984741211" style="font-family: -apple-system, BlinkMacSystemFont, &quot;Segoe WPC&quot;, &quot;Segoe UI&quot;, &quot;Ubuntu&quot;, &quot;Droid Sans&quot;, sans-serif, &quot;PingFang SC&quot;; font-size: 11px; text-rendering: geometricprecision; user-select: none;">23</text><title>float32[1,1]</title></g><path class="node node-border" d="M5,0h16.407999992370605a5,5 0 0 1 5,5v10.375a5,5 0 0 1 -5,5h-16.407999992370605a5,5 0 0 1 -5,-5v-10.375a5,5 0 0 1 5,-5z" style="stroke: rgb(51, 51, 51); fill: none; stroke-width: 1px;"/></g></g></g></svg>